<mxfile host="app.diagrams.net" agent="Mozilla/5.0 (Windows NT 10.0; Win64; x64) AppleWebKit/537.36 (KHTML, like Gecko) Chrome/136.0.0.0 Safari/537.36" version="27.0.3">
  <diagram id="R2lEEEUBdFMjLlhIrx00" name="Page-1">
    <mxGraphModel dx="2037" dy="2161" grid="0" gridSize="10" guides="1" tooltips="1" connect="1" arrows="1" fold="1" page="1" pageScale="1" pageWidth="850" pageHeight="1100" math="0" shadow="0" extFonts="Permanent Marker^https://fonts.googleapis.com/css?family=Permanent+Marker">
      <root>
        <mxCell id="0" />
        <mxCell id="1" parent="0" />
        <mxCell id="7BO2q8-VZPHZlbMcH210-1" value="m_menu" style="rounded=0;whiteSpace=wrap;html=1;" parent="1" vertex="1">
          <mxGeometry x="278" y="-970" width="120" height="60" as="geometry" />
        </mxCell>
        <mxCell id="7BO2q8-VZPHZlbMcH210-8" value="" style="edgeStyle=orthogonalEdgeStyle;rounded=0;orthogonalLoop=1;jettySize=auto;html=1;endArrow=none;startFill=0;" parent="1" source="7BO2q8-VZPHZlbMcH210-6" target="7BO2q8-VZPHZlbMcH210-7" edge="1">
          <mxGeometry relative="1" as="geometry" />
        </mxCell>
        <mxCell id="7BO2q8-VZPHZlbMcH210-12" value="" style="edgeStyle=orthogonalEdgeStyle;rounded=0;orthogonalLoop=1;jettySize=auto;html=1;exitX=0;exitY=0.25;exitDx=0;exitDy=0;endArrow=none;startFill=0;" parent="1" source="7BO2q8-VZPHZlbMcH210-6" target="7BO2q8-VZPHZlbMcH210-11" edge="1">
          <mxGeometry relative="1" as="geometry" />
        </mxCell>
        <mxCell id="7BO2q8-VZPHZlbMcH210-25" value="" style="edgeStyle=orthogonalEdgeStyle;rounded=0;orthogonalLoop=1;jettySize=auto;html=1;endArrow=none;startFill=0;" parent="1" source="7BO2q8-VZPHZlbMcH210-6" target="7BO2q8-VZPHZlbMcH210-24" edge="1">
          <mxGeometry relative="1" as="geometry">
            <Array as="points">
              <mxPoint x="469" y="-668" />
              <mxPoint x="469" y="-668" />
            </Array>
          </mxGeometry>
        </mxCell>
        <mxCell id="7BO2q8-VZPHZlbMcH210-40" value="" style="edgeStyle=orthogonalEdgeStyle;rounded=0;orthogonalLoop=1;jettySize=auto;html=1;endArrow=none;startFill=0;" parent="1" source="7BO2q8-VZPHZlbMcH210-6" target="7BO2q8-VZPHZlbMcH210-39" edge="1">
          <mxGeometry relative="1" as="geometry" />
        </mxCell>
        <mxCell id="7BO2q8-VZPHZlbMcH210-46" value="" style="edgeStyle=orthogonalEdgeStyle;rounded=0;orthogonalLoop=1;jettySize=auto;html=1;endArrow=none;startFill=0;" parent="1" source="7BO2q8-VZPHZlbMcH210-6" target="7BO2q8-VZPHZlbMcH210-45" edge="1">
          <mxGeometry relative="1" as="geometry" />
        </mxCell>
        <mxCell id="7BO2q8-VZPHZlbMcH210-52" style="edgeStyle=orthogonalEdgeStyle;rounded=0;orthogonalLoop=1;jettySize=auto;html=1;exitX=0.75;exitY=1;exitDx=0;exitDy=0;endArrow=none;startFill=0;" parent="1" source="7BO2q8-VZPHZlbMcH210-6" target="7BO2q8-VZPHZlbMcH210-54" edge="1">
          <mxGeometry relative="1" as="geometry">
            <mxPoint x="549" y="-553" as="targetPoint" />
            <Array as="points">
              <mxPoint x="472" y="-600" />
              <mxPoint x="549" y="-600" />
            </Array>
          </mxGeometry>
        </mxCell>
        <mxCell id="7BO2q8-VZPHZlbMcH210-73" style="edgeStyle=orthogonalEdgeStyle;rounded=0;orthogonalLoop=1;jettySize=auto;html=1;exitX=0;exitY=1;exitDx=0;exitDy=0;endArrow=none;startFill=0;" parent="1" source="7BO2q8-VZPHZlbMcH210-6" target="7BO2q8-VZPHZlbMcH210-74" edge="1">
          <mxGeometry relative="1" as="geometry">
            <mxPoint x="294" y="-522" as="targetPoint" />
          </mxGeometry>
        </mxCell>
        <mxCell id="7BO2q8-VZPHZlbMcH210-6" value="m_letter" style="rounded=0;whiteSpace=wrap;html=1;" parent="1" vertex="1">
          <mxGeometry x="382" y="-659" width="120" height="60" as="geometry" />
        </mxCell>
        <mxCell id="7BO2q8-VZPHZlbMcH210-10" value="" style="edgeStyle=orthogonalEdgeStyle;rounded=0;orthogonalLoop=1;jettySize=auto;html=1;endArrow=none;startFill=0;" parent="1" source="7BO2q8-VZPHZlbMcH210-7" target="7BO2q8-VZPHZlbMcH210-9" edge="1">
          <mxGeometry relative="1" as="geometry">
            <Array as="points">
              <mxPoint x="222" y="-629" />
              <mxPoint x="222" y="-629" />
            </Array>
          </mxGeometry>
        </mxCell>
        <mxCell id="7BO2q8-VZPHZlbMcH210-7" value="have" style="rhombus;whiteSpace=wrap;html=1;rounded=0;" parent="1" vertex="1">
          <mxGeometry x="248" y="-669" width="80" height="80" as="geometry" />
        </mxCell>
        <mxCell id="7BO2q8-VZPHZlbMcH210-9" value="m_letter_type" style="whiteSpace=wrap;html=1;rounded=0;" parent="1" vertex="1">
          <mxGeometry x="89" y="-659" width="120" height="60" as="geometry" />
        </mxCell>
        <mxCell id="7BO2q8-VZPHZlbMcH210-14" value="" style="edgeStyle=orthogonalEdgeStyle;rounded=0;orthogonalLoop=1;jettySize=auto;html=1;endArrow=none;startFill=0;" parent="1" source="7BO2q8-VZPHZlbMcH210-11" target="7BO2q8-VZPHZlbMcH210-13" edge="1">
          <mxGeometry relative="1" as="geometry" />
        </mxCell>
        <mxCell id="7BO2q8-VZPHZlbMcH210-11" value="have" style="rhombus;whiteSpace=wrap;html=1;rounded=0;" parent="1" vertex="1">
          <mxGeometry x="313" y="-782" width="80" height="80" as="geometry" />
        </mxCell>
        <mxCell id="7BO2q8-VZPHZlbMcH210-13" value="m_file_attach" style="whiteSpace=wrap;html=1;rounded=0;" parent="1" vertex="1">
          <mxGeometry x="293" y="-866" width="120" height="60" as="geometry" />
        </mxCell>
        <mxCell id="7BO2q8-VZPHZlbMcH210-28" value="" style="edgeStyle=orthogonalEdgeStyle;rounded=0;orthogonalLoop=1;jettySize=auto;html=1;endArrow=none;startFill=0;" parent="1" source="7BO2q8-VZPHZlbMcH210-24" target="7BO2q8-VZPHZlbMcH210-27" edge="1">
          <mxGeometry relative="1" as="geometry" />
        </mxCell>
        <mxCell id="7BO2q8-VZPHZlbMcH210-24" value="have" style="rhombus;whiteSpace=wrap;html=1;rounded=0;" parent="1" vertex="1">
          <mxGeometry x="429" y="-772" width="80" height="80" as="geometry" />
        </mxCell>
        <mxCell id="7BO2q8-VZPHZlbMcH210-34" value="" style="edgeStyle=orthogonalEdgeStyle;rounded=0;orthogonalLoop=1;jettySize=auto;html=1;endArrow=none;startFill=0;" parent="1" source="7BO2q8-VZPHZlbMcH210-27" target="7BO2q8-VZPHZlbMcH210-33" edge="1">
          <mxGeometry relative="1" as="geometry" />
        </mxCell>
        <mxCell id="7BO2q8-VZPHZlbMcH210-27" value="frm_letter_rule" style="whiteSpace=wrap;html=1;rounded=0;" parent="1" vertex="1">
          <mxGeometry x="421" y="-861.5" width="96" height="51" as="geometry" />
        </mxCell>
        <mxCell id="7BO2q8-VZPHZlbMcH210-36" value="" style="edgeStyle=orthogonalEdgeStyle;rounded=0;orthogonalLoop=1;jettySize=auto;html=1;endArrow=none;startFill=0;" parent="1" source="7BO2q8-VZPHZlbMcH210-33" target="7BO2q8-VZPHZlbMcH210-35" edge="1">
          <mxGeometry relative="1" as="geometry" />
        </mxCell>
        <mxCell id="7BO2q8-VZPHZlbMcH210-33" value="have" style="rhombus;whiteSpace=wrap;html=1;rounded=0;" parent="1" vertex="1">
          <mxGeometry x="429" y="-959" width="80" height="80" as="geometry" />
        </mxCell>
        <mxCell id="7BO2q8-VZPHZlbMcH210-35" value="m_rule" style="whiteSpace=wrap;html=1;rounded=0;" parent="1" vertex="1">
          <mxGeometry x="409" y="-1051" width="120" height="60" as="geometry" />
        </mxCell>
        <mxCell id="7BO2q8-VZPHZlbMcH210-42" value="" style="edgeStyle=orthogonalEdgeStyle;rounded=0;orthogonalLoop=1;jettySize=auto;html=1;endArrow=none;startFill=0;" parent="1" source="7BO2q8-VZPHZlbMcH210-39" target="7BO2q8-VZPHZlbMcH210-41" edge="1">
          <mxGeometry relative="1" as="geometry" />
        </mxCell>
        <mxCell id="7BO2q8-VZPHZlbMcH210-39" value="have" style="rhombus;whiteSpace=wrap;html=1;rounded=0;" parent="1" vertex="1">
          <mxGeometry x="524" y="-816" width="80" height="80" as="geometry" />
        </mxCell>
        <mxCell id="7BO2q8-VZPHZlbMcH210-50" value="" style="edgeStyle=orthogonalEdgeStyle;rounded=0;orthogonalLoop=1;jettySize=auto;html=1;endArrow=none;startFill=0;" parent="1" source="7BO2q8-VZPHZlbMcH210-41" target="7BO2q8-VZPHZlbMcH210-49" edge="1">
          <mxGeometry relative="1" as="geometry" />
        </mxCell>
        <mxCell id="7BO2q8-VZPHZlbMcH210-41" value="frm_withess" style="whiteSpace=wrap;html=1;rounded=0;" parent="1" vertex="1">
          <mxGeometry x="520.5" y="-923" width="87" height="51" as="geometry" />
        </mxCell>
        <mxCell id="7BO2q8-VZPHZlbMcH210-48" value="" style="edgeStyle=orthogonalEdgeStyle;rounded=0;orthogonalLoop=1;jettySize=auto;html=1;endArrow=none;startFill=0;" parent="1" source="7BO2q8-VZPHZlbMcH210-45" target="7BO2q8-VZPHZlbMcH210-47" edge="1">
          <mxGeometry relative="1" as="geometry" />
        </mxCell>
        <mxCell id="7BO2q8-VZPHZlbMcH210-45" value="have" style="rhombus;whiteSpace=wrap;html=1;rounded=0;" parent="1" vertex="1">
          <mxGeometry x="402" y="-566" width="80" height="80" as="geometry" />
        </mxCell>
        <mxCell id="7BO2q8-VZPHZlbMcH210-62" value="" style="edgeStyle=orthogonalEdgeStyle;rounded=0;orthogonalLoop=1;jettySize=auto;html=1;endArrow=none;startFill=0;" parent="1" source="7BO2q8-VZPHZlbMcH210-47" target="7BO2q8-VZPHZlbMcH210-61" edge="1">
          <mxGeometry relative="1" as="geometry" />
        </mxCell>
        <mxCell id="7BO2q8-VZPHZlbMcH210-66" value="" style="edgeStyle=orthogonalEdgeStyle;rounded=0;orthogonalLoop=1;jettySize=auto;html=1;endArrow=none;startFill=0;" parent="1" source="7BO2q8-VZPHZlbMcH210-47" target="7BO2q8-VZPHZlbMcH210-65" edge="1">
          <mxGeometry relative="1" as="geometry" />
        </mxCell>
        <mxCell id="7BO2q8-VZPHZlbMcH210-69" style="edgeStyle=orthogonalEdgeStyle;rounded=0;orthogonalLoop=1;jettySize=auto;html=1;exitX=0.75;exitY=1;exitDx=0;exitDy=0;endArrow=none;startFill=0;" parent="1" source="7BO2q8-VZPHZlbMcH210-47" target="7BO2q8-VZPHZlbMcH210-70" edge="1">
          <mxGeometry relative="1" as="geometry">
            <mxPoint x="639" y="-334" as="targetPoint" />
          </mxGeometry>
        </mxCell>
        <mxCell id="7BO2q8-VZPHZlbMcH210-47" value="m_user" style="whiteSpace=wrap;html=1;rounded=0;" parent="1" vertex="1">
          <mxGeometry x="382" y="-459" width="120" height="60" as="geometry" />
        </mxCell>
        <mxCell id="7BO2q8-VZPHZlbMcH210-51" style="edgeStyle=orthogonalEdgeStyle;rounded=0;orthogonalLoop=1;jettySize=auto;html=1;entryX=1;entryY=0.5;entryDx=0;entryDy=0;endArrow=none;startFill=0;" parent="1" source="7BO2q8-VZPHZlbMcH210-49" target="7BO2q8-VZPHZlbMcH210-47" edge="1">
          <mxGeometry relative="1" as="geometry">
            <Array as="points">
              <mxPoint x="677" y="-429" />
            </Array>
          </mxGeometry>
        </mxCell>
        <mxCell id="7BO2q8-VZPHZlbMcH210-49" value="have" style="rhombus;whiteSpace=wrap;html=1;rounded=0;" parent="1" vertex="1">
          <mxGeometry x="637" y="-937.5" width="80" height="80" as="geometry" />
        </mxCell>
        <mxCell id="7BO2q8-VZPHZlbMcH210-95" style="edgeStyle=orthogonalEdgeStyle;rounded=0;orthogonalLoop=1;jettySize=auto;html=1;entryX=0.5;entryY=0;entryDx=0;entryDy=0;endArrow=none;startFill=0;" parent="1" source="7BO2q8-VZPHZlbMcH210-54" target="7BO2q8-VZPHZlbMcH210-55" edge="1">
          <mxGeometry relative="1" as="geometry" />
        </mxCell>
        <mxCell id="7BO2q8-VZPHZlbMcH210-54" value="have" style="rhombus;whiteSpace=wrap;html=1;" parent="1" vertex="1">
          <mxGeometry x="740" y="-632" width="63" height="63" as="geometry" />
        </mxCell>
        <mxCell id="7BO2q8-VZPHZlbMcH210-58" value="" style="edgeStyle=orthogonalEdgeStyle;rounded=0;orthogonalLoop=1;jettySize=auto;html=1;endArrow=none;startFill=0;" parent="1" source="7BO2q8-VZPHZlbMcH210-55" target="7BO2q8-VZPHZlbMcH210-57" edge="1">
          <mxGeometry relative="1" as="geometry" />
        </mxCell>
        <mxCell id="7BO2q8-VZPHZlbMcH210-55" value="frm_target" style="whiteSpace=wrap;html=1;" parent="1" vertex="1">
          <mxGeometry x="731.5" y="-530" width="80" height="40" as="geometry" />
        </mxCell>
        <mxCell id="7BO2q8-VZPHZlbMcH210-59" style="edgeStyle=orthogonalEdgeStyle;rounded=0;orthogonalLoop=1;jettySize=auto;html=1;entryX=1;entryY=0.75;entryDx=0;entryDy=0;endArrow=none;startFill=0;" parent="1" source="7BO2q8-VZPHZlbMcH210-57" target="7BO2q8-VZPHZlbMcH210-47" edge="1">
          <mxGeometry relative="1" as="geometry" />
        </mxCell>
        <mxCell id="7BO2q8-VZPHZlbMcH210-57" value="have" style="rhombus;whiteSpace=wrap;html=1;" parent="1" vertex="1">
          <mxGeometry x="731.5" y="-454" width="80" height="80" as="geometry" />
        </mxCell>
        <mxCell id="7BO2q8-VZPHZlbMcH210-64" value="" style="edgeStyle=orthogonalEdgeStyle;rounded=0;orthogonalLoop=1;jettySize=auto;html=1;endArrow=none;startFill=0;" parent="1" source="7BO2q8-VZPHZlbMcH210-61" target="7BO2q8-VZPHZlbMcH210-63" edge="1">
          <mxGeometry relative="1" as="geometry" />
        </mxCell>
        <mxCell id="7BO2q8-VZPHZlbMcH210-61" value="have" style="rhombus;whiteSpace=wrap;html=1;rounded=0;" parent="1" vertex="1">
          <mxGeometry x="268" y="-469" width="80" height="80" as="geometry" />
        </mxCell>
        <mxCell id="7BO2q8-VZPHZlbMcH210-63" value="m_prefix" style="rounded=0;whiteSpace=wrap;html=1;" parent="1" vertex="1">
          <mxGeometry x="109" y="-459" width="120" height="60" as="geometry" />
        </mxCell>
        <mxCell id="7BO2q8-VZPHZlbMcH210-68" value="" style="edgeStyle=orthogonalEdgeStyle;rounded=0;orthogonalLoop=1;jettySize=auto;html=1;endArrow=none;startFill=0;" parent="1" source="7BO2q8-VZPHZlbMcH210-65" target="7BO2q8-VZPHZlbMcH210-67" edge="1">
          <mxGeometry relative="1" as="geometry" />
        </mxCell>
        <mxCell id="7BO2q8-VZPHZlbMcH210-65" value="have" style="rhombus;whiteSpace=wrap;html=1;rounded=0;" parent="1" vertex="1">
          <mxGeometry x="402" y="-372" width="80" height="80" as="geometry" />
        </mxCell>
        <mxCell id="AeP0G8S4QCH2imR5dZR7-3" value="" style="edgeStyle=orthogonalEdgeStyle;rounded=0;orthogonalLoop=1;jettySize=auto;html=1;endArrow=none;startFill=0;" edge="1" parent="1" source="7BO2q8-VZPHZlbMcH210-67" target="AeP0G8S4QCH2imR5dZR7-2">
          <mxGeometry relative="1" as="geometry" />
        </mxCell>
        <mxCell id="7BO2q8-VZPHZlbMcH210-67" value="usr_position" style="whiteSpace=wrap;html=1;rounded=0;" parent="1" vertex="1">
          <mxGeometry x="382" y="-265" width="120" height="60" as="geometry" />
        </mxCell>
        <mxCell id="7BO2q8-VZPHZlbMcH210-72" value="" style="edgeStyle=orthogonalEdgeStyle;rounded=0;orthogonalLoop=1;jettySize=auto;html=1;endArrow=none;startFill=0;" parent="1" source="7BO2q8-VZPHZlbMcH210-70" target="7BO2q8-VZPHZlbMcH210-71" edge="1">
          <mxGeometry relative="1" as="geometry" />
        </mxCell>
        <mxCell id="7BO2q8-VZPHZlbMcH210-70" value="have" style="rhombus;whiteSpace=wrap;html=1;" parent="1" vertex="1">
          <mxGeometry x="565" y="-359" width="80" height="80" as="geometry" />
        </mxCell>
        <mxCell id="7BO2q8-VZPHZlbMcH210-71" value="usr_department" style="whiteSpace=wrap;html=1;" parent="1" vertex="1">
          <mxGeometry x="545" y="-250" width="120" height="60" as="geometry" />
        </mxCell>
        <mxCell id="7BO2q8-VZPHZlbMcH210-77" value="" style="edgeStyle=orthogonalEdgeStyle;rounded=0;orthogonalLoop=1;jettySize=auto;html=1;endArrow=none;startFill=0;" parent="1" source="7BO2q8-VZPHZlbMcH210-74" target="7BO2q8-VZPHZlbMcH210-76" edge="1">
          <mxGeometry relative="1" as="geometry" />
        </mxCell>
        <mxCell id="7BO2q8-VZPHZlbMcH210-74" value="hvae" style="rhombus;whiteSpace=wrap;html=1;" parent="1" vertex="1">
          <mxGeometry x="266" y="-558" width="80" height="80" as="geometry" />
        </mxCell>
        <mxCell id="7BO2q8-VZPHZlbMcH210-79" value="" style="edgeStyle=orthogonalEdgeStyle;rounded=0;orthogonalLoop=1;jettySize=auto;html=1;endArrow=none;startFill=0;" parent="1" source="7BO2q8-VZPHZlbMcH210-76" target="7BO2q8-VZPHZlbMcH210-78" edge="1">
          <mxGeometry relative="1" as="geometry">
            <Array as="points">
              <mxPoint x="27" y="-518" />
              <mxPoint x="27" y="-313" />
            </Array>
          </mxGeometry>
        </mxCell>
        <mxCell id="7BO2q8-VZPHZlbMcH210-76" value="letter_process" style="whiteSpace=wrap;html=1;" parent="1" vertex="1">
          <mxGeometry x="86" y="-548" width="120" height="60" as="geometry" />
        </mxCell>
        <mxCell id="7BO2q8-VZPHZlbMcH210-80" style="edgeStyle=orthogonalEdgeStyle;rounded=0;orthogonalLoop=1;jettySize=auto;html=1;entryX=0;entryY=1;entryDx=0;entryDy=0;endArrow=none;startFill=0;" parent="1" source="7BO2q8-VZPHZlbMcH210-78" target="7BO2q8-VZPHZlbMcH210-47" edge="1">
          <mxGeometry relative="1" as="geometry" />
        </mxCell>
        <mxCell id="7BO2q8-VZPHZlbMcH210-78" value="hvae" style="rhombus;whiteSpace=wrap;html=1;" parent="1" vertex="1">
          <mxGeometry x="136" y="-352" width="80" height="80" as="geometry" />
        </mxCell>
        <mxCell id="7BO2q8-VZPHZlbMcH210-86" value="1" style="text;html=1;align=center;verticalAlign=middle;whiteSpace=wrap;rounded=0;" parent="1" vertex="1">
          <mxGeometry x="470" y="-974" width="16" height="18" as="geometry" />
        </mxCell>
        <mxCell id="7BO2q8-VZPHZlbMcH210-87" value="1" style="text;html=1;align=center;verticalAlign=middle;whiteSpace=wrap;rounded=0;" parent="1" vertex="1">
          <mxGeometry x="360" y="-665" width="16" height="18" as="geometry" />
        </mxCell>
        <mxCell id="7BO2q8-VZPHZlbMcH210-88" value="1" style="text;html=1;align=center;verticalAlign=middle;whiteSpace=wrap;rounded=0;" parent="1" vertex="1">
          <mxGeometry x="450" y="-681" width="16" height="18" as="geometry" />
        </mxCell>
        <mxCell id="7BO2q8-VZPHZlbMcH210-89" value="1" style="text;html=1;align=center;verticalAlign=middle;whiteSpace=wrap;rounded=0;" parent="1" vertex="1">
          <mxGeometry x="504.5" y="-645" width="16" height="18" as="geometry" />
        </mxCell>
        <mxCell id="7BO2q8-VZPHZlbMcH210-90" value="1" style="text;html=1;align=center;verticalAlign=middle;whiteSpace=wrap;rounded=0;" parent="1" vertex="1">
          <mxGeometry x="366" y="-632" width="16" height="18" as="geometry" />
        </mxCell>
        <mxCell id="7BO2q8-VZPHZlbMcH210-91" value="1" style="text;html=1;align=center;verticalAlign=middle;whiteSpace=wrap;rounded=0;" parent="1" vertex="1">
          <mxGeometry x="209" y="-632" width="16" height="18" as="geometry" />
        </mxCell>
        <mxCell id="7BO2q8-VZPHZlbMcH210-92" value="1" style="text;html=1;align=center;verticalAlign=middle;whiteSpace=wrap;rounded=0;" parent="1" vertex="1">
          <mxGeometry x="363" y="-599" width="16" height="18" as="geometry" />
        </mxCell>
        <mxCell id="7BO2q8-VZPHZlbMcH210-93" value="1" style="text;html=1;align=center;verticalAlign=middle;whiteSpace=wrap;rounded=0;" parent="1" vertex="1">
          <mxGeometry x="442" y="-591" width="16" height="18" as="geometry" />
        </mxCell>
        <mxCell id="7BO2q8-VZPHZlbMcH210-94" value="1" style="text;html=1;align=center;verticalAlign=middle;whiteSpace=wrap;rounded=0;" parent="1" vertex="1">
          <mxGeometry x="326" y="-614" width="16" height="18" as="geometry" />
        </mxCell>
        <mxCell id="7BO2q8-VZPHZlbMcH210-96" value="1" style="text;html=1;align=center;verticalAlign=middle;whiteSpace=wrap;rounded=0;" parent="1" vertex="1">
          <mxGeometry x="508" y="-619" width="16" height="18" as="geometry" />
        </mxCell>
        <mxCell id="7BO2q8-VZPHZlbMcH210-97" value="1" style="text;html=1;align=center;verticalAlign=middle;whiteSpace=wrap;rounded=0;" parent="1" vertex="1">
          <mxGeometry x="502" y="-415" width="16" height="18" as="geometry" />
        </mxCell>
        <mxCell id="7BO2q8-VZPHZlbMcH210-98" value="1" style="text;html=1;align=center;verticalAlign=middle;whiteSpace=wrap;rounded=0;" parent="1" vertex="1">
          <mxGeometry x="607.5" y="-277" width="16" height="18" as="geometry" />
        </mxCell>
        <mxCell id="7BO2q8-VZPHZlbMcH210-101" value="1" style="text;html=1;align=center;verticalAlign=middle;whiteSpace=wrap;rounded=0;" parent="1" vertex="1">
          <mxGeometry x="477" y="-379" width="16" height="18" as="geometry" />
        </mxCell>
        <mxCell id="7BO2q8-VZPHZlbMcH210-104" value="1" style="text;html=1;align=center;verticalAlign=middle;whiteSpace=wrap;rounded=0;" parent="1" vertex="1">
          <mxGeometry x="424" y="-392" width="16" height="18" as="geometry" />
        </mxCell>
        <mxCell id="7BO2q8-VZPHZlbMcH210-105" value="1" style="text;html=1;align=center;verticalAlign=middle;whiteSpace=wrap;rounded=0;" parent="1" vertex="1">
          <mxGeometry x="426" y="-290" width="16" height="18" as="geometry" />
        </mxCell>
        <mxCell id="7BO2q8-VZPHZlbMcH210-106" value="1" style="text;html=1;align=center;verticalAlign=middle;whiteSpace=wrap;rounded=0;" parent="1" vertex="1">
          <mxGeometry x="216" y="-330" width="16" height="18" as="geometry" />
        </mxCell>
        <mxCell id="7BO2q8-VZPHZlbMcH210-107" value="1" style="text;html=1;align=center;verticalAlign=middle;whiteSpace=wrap;rounded=0;" parent="1" vertex="1">
          <mxGeometry x="250" y="-447" width="16" height="18" as="geometry" />
        </mxCell>
        <mxCell id="7BO2q8-VZPHZlbMcH210-108" value="1" style="text;html=1;align=center;verticalAlign=middle;whiteSpace=wrap;rounded=0;" parent="1" vertex="1">
          <mxGeometry x="350" y="-447" width="16" height="18" as="geometry" />
        </mxCell>
        <mxCell id="7BO2q8-VZPHZlbMcH210-110" value="M" style="text;html=1;align=center;verticalAlign=middle;whiteSpace=wrap;rounded=0;" parent="1" vertex="1">
          <mxGeometry x="472" y="-879" width="16" height="18" as="geometry" />
        </mxCell>
        <mxCell id="7BO2q8-VZPHZlbMcH210-111" value="M" style="text;html=1;align=center;verticalAlign=middle;whiteSpace=wrap;rounded=0;" parent="1" vertex="1">
          <mxGeometry x="353" y="-800" width="16" height="18" as="geometry" />
        </mxCell>
        <mxCell id="7BO2q8-VZPHZlbMcH210-112" value="M" style="text;html=1;align=center;verticalAlign=middle;whiteSpace=wrap;rounded=0;" parent="1" vertex="1">
          <mxGeometry x="563" y="-839" width="16" height="18" as="geometry" />
        </mxCell>
        <mxCell id="7BO2q8-VZPHZlbMcH210-113" value="M" style="text;html=1;align=center;verticalAlign=middle;whiteSpace=wrap;rounded=0;" parent="1" vertex="1">
          <mxGeometry x="614" y="-917" width="16" height="18" as="geometry" />
        </mxCell>
        <mxCell id="7BO2q8-VZPHZlbMcH210-114" value="1" style="text;html=1;align=center;verticalAlign=middle;whiteSpace=wrap;rounded=0;" parent="1" vertex="1">
          <mxGeometry x="504.5" y="-447" width="16" height="18" as="geometry" />
        </mxCell>
        <mxCell id="7BO2q8-VZPHZlbMcH210-115" value="M" style="text;html=1;align=center;verticalAlign=middle;whiteSpace=wrap;rounded=0;" parent="1" vertex="1">
          <mxGeometry x="773" y="-551" width="16" height="18" as="geometry" />
        </mxCell>
        <mxCell id="7BO2q8-VZPHZlbMcH210-116" value="M" style="text;html=1;align=center;verticalAlign=middle;whiteSpace=wrap;rounded=0;" parent="1" vertex="1">
          <mxGeometry x="775" y="-484" width="16" height="18" as="geometry" />
        </mxCell>
        <mxCell id="7BO2q8-VZPHZlbMcH210-117" value="M" style="text;html=1;align=center;verticalAlign=middle;whiteSpace=wrap;rounded=0;" parent="1" vertex="1">
          <mxGeometry x="232" y="-535" width="16" height="18" as="geometry" />
        </mxCell>
        <mxCell id="7BO2q8-VZPHZlbMcH210-118" value="M" style="text;html=1;align=center;verticalAlign=middle;whiteSpace=wrap;rounded=0;" parent="1" vertex="1">
          <mxGeometry x="106" y="-333" width="16" height="18" as="geometry" />
        </mxCell>
        <mxCell id="7BO2q8-VZPHZlbMcH210-119" value="M" style="text;html=1;align=center;verticalAlign=middle;whiteSpace=wrap;rounded=0;" parent="1" vertex="1">
          <mxGeometry x="472" y="-792" width="16" height="18" as="geometry" />
        </mxCell>
        <mxCell id="7BO2q8-VZPHZlbMcH210-121" value="1" style="text;html=1;align=center;verticalAlign=middle;whiteSpace=wrap;rounded=0;" parent="1" vertex="1">
          <mxGeometry x="442" y="-484" width="16" height="18" as="geometry" />
        </mxCell>
        <mxCell id="AeP0G8S4QCH2imR5dZR7-2" value="have" style="rhombus;whiteSpace=wrap;html=1;rounded=0;" vertex="1" parent="1">
          <mxGeometry x="402" y="-169" width="80" height="80" as="geometry" />
        </mxCell>
        <mxCell id="AeP0G8S4QCH2imR5dZR7-4" style="edgeStyle=orthogonalEdgeStyle;rounded=0;orthogonalLoop=1;jettySize=auto;html=1;entryX=0.592;entryY=0.983;entryDx=0;entryDy=0;entryPerimeter=0;endArrow=none;startFill=0;" edge="1" parent="1" source="AeP0G8S4QCH2imR5dZR7-2" target="7BO2q8-VZPHZlbMcH210-71">
          <mxGeometry relative="1" as="geometry" />
        </mxCell>
        <mxCell id="AeP0G8S4QCH2imR5dZR7-5" value="1" style="text;html=1;align=center;verticalAlign=middle;whiteSpace=wrap;rounded=0;" vertex="1" parent="1">
          <mxGeometry x="488.5" y="-148" width="16" height="18" as="geometry" />
        </mxCell>
        <mxCell id="AeP0G8S4QCH2imR5dZR7-6" value="M" style="text;html=1;align=center;verticalAlign=middle;whiteSpace=wrap;rounded=0;" vertex="1" parent="1">
          <mxGeometry x="424" y="-190" width="16" height="18" as="geometry" />
        </mxCell>
      </root>
    </mxGraphModel>
  </diagram>
</mxfile>
